<mxfile host="app.diagrams.net" modified="2023-12-04T04:29:37.114Z" agent="Mozilla/5.0 (Windows NT 10.0; Win64; x64) AppleWebKit/537.36 (KHTML, like Gecko) Chrome/119.0.0.0 Safari/537.36" etag="Q_lnbeveyZ3oMpS_Kg0y" version="22.1.5" type="device">
  <diagram name="Page-1" id="xEVJzxVA0y6uoFuYLg0A">
    <mxGraphModel dx="1400" dy="755" grid="0" gridSize="10" guides="1" tooltips="1" connect="1" arrows="1" fold="1" page="1" pageScale="1" pageWidth="690" pageHeight="980" math="0" shadow="0">
      <root>
        <mxCell id="0" />
        <mxCell id="1" parent="0" />
        <mxCell id="9fj1KSa6jv1FIBY2Gt9f-1" value="User&amp;nbsp;" style="rounded=0;whiteSpace=wrap;html=1;" vertex="1" parent="1">
          <mxGeometry x="66" y="80" width="80" height="40" as="geometry" />
        </mxCell>
        <mxCell id="9fj1KSa6jv1FIBY2Gt9f-2" value="Backend" style="rounded=0;whiteSpace=wrap;html=1;" vertex="1" parent="1">
          <mxGeometry x="393" y="80" width="80" height="40" as="geometry" />
        </mxCell>
        <mxCell id="9fj1KSa6jv1FIBY2Gt9f-3" value="Frontend" style="rounded=0;whiteSpace=wrap;html=1;" vertex="1" parent="1">
          <mxGeometry x="229" y="80" width="80" height="40" as="geometry" />
        </mxCell>
        <mxCell id="9fj1KSa6jv1FIBY2Gt9f-4" value="Database" style="rounded=0;whiteSpace=wrap;html=1;" vertex="1" parent="1">
          <mxGeometry x="556" y="80" width="80" height="40" as="geometry" />
        </mxCell>
        <mxCell id="9fj1KSa6jv1FIBY2Gt9f-5" value="" style="endArrow=none;html=1;rounded=0;entryX=0.5;entryY=1;entryDx=0;entryDy=0;strokeWidth=2;" edge="1" parent="1" target="9fj1KSa6jv1FIBY2Gt9f-1">
          <mxGeometry width="50" height="50" relative="1" as="geometry">
            <mxPoint x="106" y="710" as="sourcePoint" />
            <mxPoint x="370" y="320" as="targetPoint" />
          </mxGeometry>
        </mxCell>
        <mxCell id="9fj1KSa6jv1FIBY2Gt9f-6" value="" style="endArrow=none;html=1;rounded=0;entryX=0.5;entryY=1;entryDx=0;entryDy=0;strokeWidth=2;" edge="1" parent="1" target="9fj1KSa6jv1FIBY2Gt9f-3">
          <mxGeometry width="50" height="50" relative="1" as="geometry">
            <mxPoint x="269" y="710" as="sourcePoint" />
            <mxPoint x="268.37" y="190" as="targetPoint" />
          </mxGeometry>
        </mxCell>
        <mxCell id="9fj1KSa6jv1FIBY2Gt9f-7" value="" style="endArrow=none;html=1;rounded=0;entryX=0.5;entryY=1;entryDx=0;entryDy=0;strokeWidth=2;" edge="1" parent="1" target="9fj1KSa6jv1FIBY2Gt9f-2">
          <mxGeometry width="50" height="50" relative="1" as="geometry">
            <mxPoint x="433" y="710" as="sourcePoint" />
            <mxPoint x="433.0000000000002" y="80.00000000000011" as="targetPoint" />
          </mxGeometry>
        </mxCell>
        <mxCell id="9fj1KSa6jv1FIBY2Gt9f-8" value="" style="endArrow=none;html=1;rounded=0;strokeWidth=2;" edge="1" parent="1">
          <mxGeometry width="50" height="50" relative="1" as="geometry">
            <mxPoint x="600" y="710" as="sourcePoint" />
            <mxPoint x="598" y="120" as="targetPoint" />
          </mxGeometry>
        </mxCell>
        <mxCell id="9fj1KSa6jv1FIBY2Gt9f-9" value="" style="endArrow=classic;html=1;rounded=0;" edge="1" parent="1">
          <mxGeometry width="50" height="50" relative="1" as="geometry">
            <mxPoint x="110" y="200" as="sourcePoint" />
            <mxPoint x="270" y="200" as="targetPoint" />
          </mxGeometry>
        </mxCell>
        <mxCell id="9fj1KSa6jv1FIBY2Gt9f-11" value="" style="endArrow=classic;html=1;rounded=0;" edge="1" parent="1">
          <mxGeometry width="50" height="50" relative="1" as="geometry">
            <mxPoint x="430" y="280" as="sourcePoint" />
            <mxPoint x="270" y="280" as="targetPoint" />
          </mxGeometry>
        </mxCell>
        <mxCell id="9fj1KSa6jv1FIBY2Gt9f-12" value="" style="endArrow=classic;html=1;rounded=0;" edge="1" parent="1">
          <mxGeometry width="50" height="50" relative="1" as="geometry">
            <mxPoint x="270" y="420" as="sourcePoint" />
            <mxPoint x="110" y="420" as="targetPoint" />
          </mxGeometry>
        </mxCell>
        <mxCell id="9fj1KSa6jv1FIBY2Gt9f-15" value="" style="endArrow=classic;html=1;rounded=0;" edge="1" parent="1">
          <mxGeometry width="50" height="50" relative="1" as="geometry">
            <mxPoint x="109" y="475" as="sourcePoint" />
            <mxPoint x="269" y="475" as="targetPoint" />
          </mxGeometry>
        </mxCell>
        <mxCell id="9fj1KSa6jv1FIBY2Gt9f-16" value="" style="endArrow=classic;html=1;rounded=0;" edge="1" parent="1">
          <mxGeometry width="50" height="50" relative="1" as="geometry">
            <mxPoint x="270" y="540" as="sourcePoint" />
            <mxPoint x="430" y="540" as="targetPoint" />
          </mxGeometry>
        </mxCell>
        <mxCell id="9fj1KSa6jv1FIBY2Gt9f-18" value="" style="endArrow=classic;html=1;rounded=0;" edge="1" parent="1">
          <mxGeometry width="50" height="50" relative="1" as="geometry">
            <mxPoint x="430" y="583" as="sourcePoint" />
            <mxPoint x="270" y="583" as="targetPoint" />
          </mxGeometry>
        </mxCell>
        <mxCell id="9fj1KSa6jv1FIBY2Gt9f-19" value="" style="endArrow=classic;html=1;rounded=0;" edge="1" parent="1">
          <mxGeometry width="50" height="50" relative="1" as="geometry">
            <mxPoint x="270" y="660" as="sourcePoint" />
            <mxPoint x="110" y="660" as="targetPoint" />
          </mxGeometry>
        </mxCell>
        <mxCell id="9fj1KSa6jv1FIBY2Gt9f-21" value="" style="endArrow=classic;html=1;rounded=0;" edge="1" parent="1">
          <mxGeometry width="50" height="50" relative="1" as="geometry">
            <mxPoint x="270" y="625" as="sourcePoint" />
            <mxPoint x="430" y="625" as="targetPoint" />
          </mxGeometry>
        </mxCell>
        <mxCell id="9fj1KSa6jv1FIBY2Gt9f-22" value="Login" style="text;html=1;strokeColor=none;fillColor=none;align=center;verticalAlign=middle;whiteSpace=wrap;rounded=0;" vertex="1" parent="1">
          <mxGeometry x="160" y="180" width="40" height="20" as="geometry" />
        </mxCell>
        <mxCell id="9fj1KSa6jv1FIBY2Gt9f-23" value="Login Request" style="text;html=1;strokeColor=none;fillColor=none;align=center;verticalAlign=middle;whiteSpace=wrap;rounded=0;" vertex="1" parent="1">
          <mxGeometry x="313" y="220" width="80" height="20" as="geometry" />
        </mxCell>
        <mxCell id="9fj1KSa6jv1FIBY2Gt9f-24" value="" style="endArrow=classic;html=1;rounded=0;" edge="1" parent="1">
          <mxGeometry width="50" height="50" relative="1" as="geometry">
            <mxPoint x="273" y="240" as="sourcePoint" />
            <mxPoint x="433" y="240" as="targetPoint" />
          </mxGeometry>
        </mxCell>
        <mxCell id="9fj1KSa6jv1FIBY2Gt9f-25" value="Validate User" style="text;html=1;strokeColor=none;fillColor=none;align=center;verticalAlign=middle;whiteSpace=wrap;rounded=0;" vertex="1" parent="1">
          <mxGeometry x="309" y="280" width="80" height="20" as="geometry" />
        </mxCell>
        <mxCell id="9fj1KSa6jv1FIBY2Gt9f-26" value="Login Sucess" style="text;html=1;strokeColor=none;fillColor=none;align=center;verticalAlign=middle;whiteSpace=wrap;rounded=0;" vertex="1" parent="1">
          <mxGeometry x="140" y="395" width="80" height="20" as="geometry" />
        </mxCell>
        <mxCell id="9fj1KSa6jv1FIBY2Gt9f-27" value="Create Project" style="text;html=1;strokeColor=none;fillColor=none;align=center;verticalAlign=middle;whiteSpace=wrap;rounded=0;" vertex="1" parent="1">
          <mxGeometry x="140" y="450" width="80" height="20" as="geometry" />
        </mxCell>
        <mxCell id="9fj1KSa6jv1FIBY2Gt9f-28" value="Create Project Request" style="text;html=1;strokeColor=none;fillColor=none;align=center;verticalAlign=middle;whiteSpace=wrap;rounded=0;" vertex="1" parent="1">
          <mxGeometry x="280" y="520" width="130" height="20" as="geometry" />
        </mxCell>
        <mxCell id="9fj1KSa6jv1FIBY2Gt9f-31" value="Validate request" style="text;html=1;strokeColor=none;fillColor=none;align=center;verticalAlign=middle;whiteSpace=wrap;rounded=0;" vertex="1" parent="1">
          <mxGeometry x="280" y="562" width="130" height="20" as="geometry" />
        </mxCell>
        <mxCell id="9fj1KSa6jv1FIBY2Gt9f-33" value="Create Project" style="text;html=1;strokeColor=none;fillColor=none;align=center;verticalAlign=middle;whiteSpace=wrap;rounded=0;" vertex="1" parent="1">
          <mxGeometry x="282" y="602" width="130" height="20" as="geometry" />
        </mxCell>
        <mxCell id="9fj1KSa6jv1FIBY2Gt9f-34" value="Project created" style="text;html=1;strokeColor=none;fillColor=none;align=center;verticalAlign=middle;whiteSpace=wrap;rounded=0;" vertex="1" parent="1">
          <mxGeometry x="123" y="637" width="130" height="20" as="geometry" />
        </mxCell>
        <mxCell id="9fj1KSa6jv1FIBY2Gt9f-37" value="" style="endArrow=classic;html=1;rounded=0;" edge="1" parent="1">
          <mxGeometry width="50" height="50" relative="1" as="geometry">
            <mxPoint x="433" y="260" as="sourcePoint" />
            <mxPoint x="593" y="260" as="targetPoint" />
          </mxGeometry>
        </mxCell>
        <mxCell id="9fj1KSa6jv1FIBY2Gt9f-38" value="User Status Changed&amp;nbsp;" style="text;html=1;strokeColor=none;fillColor=none;align=center;verticalAlign=middle;whiteSpace=wrap;rounded=0;" vertex="1" parent="1">
          <mxGeometry x="450" y="240" width="124" height="20" as="geometry" />
        </mxCell>
        <mxCell id="9fj1KSa6jv1FIBY2Gt9f-39" value="" style="endArrow=classic;html=1;rounded=0;" edge="1" parent="1">
          <mxGeometry width="50" height="50" relative="1" as="geometry">
            <mxPoint x="433" y="645.58" as="sourcePoint" />
            <mxPoint x="593" y="645.58" as="targetPoint" />
          </mxGeometry>
        </mxCell>
        <mxCell id="9fj1KSa6jv1FIBY2Gt9f-40" value="Project Status Created" style="text;html=1;strokeColor=none;fillColor=none;align=center;verticalAlign=middle;whiteSpace=wrap;rounded=0;" vertex="1" parent="1">
          <mxGeometry x="450" y="622" width="124" height="20" as="geometry" />
        </mxCell>
      </root>
    </mxGraphModel>
  </diagram>
</mxfile>
